<svg xmlns="http://www.w3.org/2000/svg" version="1.1" id="Layer_1" x="0" y="0" width="113.55" height="44.14" viewBox="0 0 113.55 44.14" enable-background="new 0 0 113.55 44.14" xml:space="preserve"><path fill="none" stroke="#FFFFFF" d="M30.336 35.662H5.398V0.5h24.938V35.662L30.336 35.662zM57.934 35.662H32.996V0.5h24.938V35.662L57.934 35.662zM85.447 35.662H60.51V0.5h24.938V35.662L85.447 35.662zM113.045 35.662H88.107V0.5h24.938V35.662L113.045 35.662z"/><path fill="#00529C" d="M44.078 18.01"/><path fill="#00529C" d="M44.078 18.01"/><path fill="#00529C" d="M70.285 18.01"/><path fill="#00529C" d="M70.285 18.01"/><path fill="#00529C" d="M96.494 18.01"/><path fill="#00529C" d="M96.494 18.01"/><path fill="#00529C" d="M17.867 18.01"/><path fill="#00529C" d="M17.867 18.01"/><path fill="#00529C" d="M44.078 18.01"/><path fill="#00529C" d="M44.078 18.01"/><path fill="#00529C" d="M70.285 18.01"/><path fill="#00529C" d="M70.285 18.01"/><path fill="#00529C" d="M96.494 18.01"/><path fill="#00529C" d="M96.494 18.01"/><path fill="#00529C" d="M17.867 18.01"/><path fill="#00529C" d="M17.867 18.01"/><polyline fill="none" stroke="#FFFFFF" points="112.96 35.67 112.96 0.52 88.08 0.52 "/><path fill="#FFFFFF" d="M75.416 43.533h-5.51l6.049-20.352L62.803 43.533h-4.627l-1.229-20.355L50.92 43.533h-4.463l7.277-23.764h7.729c0 0 1.182 12.197 0.271 20.561 0-0.002 2.301-7.387 11.793-20.561h7.809L75.416 43.533 75.416 43.533z"/><path fill="#FFFFFF" d="M105.045 27.42l-4.887-0.006c0.078-0.166 0.107-0.4 0.162-0.59 0.844-2.834-0.898-3.979-3.967-4.123 -4.535-0.215-6.984 3.369-8.527 8.725 -1.662 5.771-0.264 9.301 4.771 9.283 4.004-0.014 3.793-0.838 3.793-0.838l1.648-5.201h-5.311l1.125-3.596h10.07l-3.365 12.006c-1.348 0.531-5.818 1.057-8.996 1.057 -4.783 0-11.727-3.184-8.873-12.574 3.418-11.23 9.346-12.295 14.129-12.295C103.805 19.268 106.295 23.777 105.045 27.42L105.045 27.42z"/><path fill="#FFFFFF" d="M5.328 43.545H0l7.135-23.771h5.33C12.465 19.773 5.432 43.059 5.328 43.545L5.328 43.545z"/><polyline fill="#FFFFFF" points="9.49 30.27 9.48 30.27 19.9 19.77 26.45 19.77 14.67 30.77 20.66 43.55 14.85 43.55 9.49 30.25 "/><path fill="#FFFFFF" d="M38 19.771h-6.061l-7.17 23.773h4.891l2.807-9.391 3.914-0.002c7.59 0.008 10.939-3.369 11.648-7.207C49.385 19.621 43.48 19.705 38 19.771L38 19.771zM43.109 26.945c-0.805 2.424-1.9 3.66-5.475 3.725 -1.188 0.02-2.475-0.006-4.244-0.006l2.178-7.471C40.932 23.188 44.508 22.744 43.109 26.945L43.109 26.945z"/></svg>