<?xml version="1.0" encoding="utf-8"?>
<!-- Generator: Adobe Illustrator 15.1.0, SVG Export Plug-In . SVG Version: 6.00 Build 0)  -->
<!DOCTYPE svg PUBLIC "-//W3C//DTD SVG 1.1//EN" "http://www.w3.org/Graphics/SVG/1.1/DTD/svg11.dtd">
<svg version="1.1" id="Isolation_Mode" xmlns="http://www.w3.org/2000/svg" xmlns:xlink="http://www.w3.org/1999/xlink" x="0px"
	 y="0px" width="26.395px" height="26.25px" viewBox="0 0 26.395 26.25" enable-background="new 0 0 26.395 26.25"
	 xml:space="preserve">
<g>
	<path fill="#FFFFFF" d="M26.385,26.25c0.059-1.617-0.107-5.14-1.67-6.757c-1.617-1.675-7.393-2.224-8.895-4.072
		c-0.273-0.336-0.229-1.331-0.059-1.675c0.576-0.733,1.893-1.617,2.304-3.718C18.1,9.852,18.371,9.583,18.391,9.4
		c0.098-0.964,0.367-1.944,0.26-2.686c-0.036-0.25-0.287-0.32-0.303-0.563c-0.361-5.342-2.404-6-5.01-6.151
		c-2.613,0.151-4.823,0.78-5.299,6.151C8.018,6.393,7.771,6.464,7.735,6.714C7.629,7.456,7.897,8.436,7.995,9.4
		c0.019,0.183,0.29,0.452,0.325,0.628c0.411,2.101,1.727,2.985,2.303,3.718c0.172,0.344,0.215,1.338-0.058,1.675
		c-1.502,1.848-7.018,2.31-8.635,3.985c-1.562,1.618-1.984,5.227-1.926,6.844H26.385z"/>
</g>
</svg>
